%TF.GenerationSoftware,KiCad,Pcbnew,8.0.1*%
%TF.CreationDate,2024-04-19T15:46:34-07:00*%
%TF.ProjectId,SCH_Dise_o-de-modulo NRF24L01 2.4GHz_Redimensionamiento Y Cambio de interfaz,5343485f-4469-4736-95f1-6f2d64652d6d,rev?*%
%TF.SameCoordinates,Original*%
%TF.FileFunction,Legend,Top*%
%TF.FilePolarity,Positive*%
%FSLAX46Y46*%
G04 Gerber Fmt 4.6, Leading zero omitted, Abs format (unit mm)*
G04 Created by KiCad (PCBNEW 8.0.1) date 2024-04-19 15:46:34*
%MOMM*%
%LPD*%
G01*
G04 APERTURE LIST*
%ADD10C,0.150000*%
%ADD11C,0.120000*%
G04 APERTURE END LIST*
D10*
X132463809Y-68988628D02*
X132463809Y-69464819D01*
X132130476Y-68464819D02*
X132463809Y-68988628D01*
X132463809Y-68988628D02*
X132797142Y-68464819D01*
X133654285Y-69464819D02*
X133082857Y-69464819D01*
X133368571Y-69464819D02*
X133368571Y-68464819D01*
X133368571Y-68464819D02*
X133273333Y-68607676D01*
X133273333Y-68607676D02*
X133178095Y-68702914D01*
X133178095Y-68702914D02*
X133082857Y-68750533D01*
X133693333Y-62189580D02*
X133645714Y-62237200D01*
X133645714Y-62237200D02*
X133502857Y-62284819D01*
X133502857Y-62284819D02*
X133407619Y-62284819D01*
X133407619Y-62284819D02*
X133264762Y-62237200D01*
X133264762Y-62237200D02*
X133169524Y-62141961D01*
X133169524Y-62141961D02*
X133121905Y-62046723D01*
X133121905Y-62046723D02*
X133074286Y-61856247D01*
X133074286Y-61856247D02*
X133074286Y-61713390D01*
X133074286Y-61713390D02*
X133121905Y-61522914D01*
X133121905Y-61522914D02*
X133169524Y-61427676D01*
X133169524Y-61427676D02*
X133264762Y-61332438D01*
X133264762Y-61332438D02*
X133407619Y-61284819D01*
X133407619Y-61284819D02*
X133502857Y-61284819D01*
X133502857Y-61284819D02*
X133645714Y-61332438D01*
X133645714Y-61332438D02*
X133693333Y-61380057D01*
X134550476Y-61618152D02*
X134550476Y-62284819D01*
X134312381Y-61237200D02*
X134074286Y-61951485D01*
X134074286Y-61951485D02*
X134693333Y-61951485D01*
X130938333Y-75549580D02*
X130890714Y-75597200D01*
X130890714Y-75597200D02*
X130747857Y-75644819D01*
X130747857Y-75644819D02*
X130652619Y-75644819D01*
X130652619Y-75644819D02*
X130509762Y-75597200D01*
X130509762Y-75597200D02*
X130414524Y-75501961D01*
X130414524Y-75501961D02*
X130366905Y-75406723D01*
X130366905Y-75406723D02*
X130319286Y-75216247D01*
X130319286Y-75216247D02*
X130319286Y-75073390D01*
X130319286Y-75073390D02*
X130366905Y-74882914D01*
X130366905Y-74882914D02*
X130414524Y-74787676D01*
X130414524Y-74787676D02*
X130509762Y-74692438D01*
X130509762Y-74692438D02*
X130652619Y-74644819D01*
X130652619Y-74644819D02*
X130747857Y-74644819D01*
X130747857Y-74644819D02*
X130890714Y-74692438D01*
X130890714Y-74692438D02*
X130938333Y-74740057D01*
X131271667Y-74644819D02*
X131890714Y-74644819D01*
X131890714Y-74644819D02*
X131557381Y-75025771D01*
X131557381Y-75025771D02*
X131700238Y-75025771D01*
X131700238Y-75025771D02*
X131795476Y-75073390D01*
X131795476Y-75073390D02*
X131843095Y-75121009D01*
X131843095Y-75121009D02*
X131890714Y-75216247D01*
X131890714Y-75216247D02*
X131890714Y-75454342D01*
X131890714Y-75454342D02*
X131843095Y-75549580D01*
X131843095Y-75549580D02*
X131795476Y-75597200D01*
X131795476Y-75597200D02*
X131700238Y-75644819D01*
X131700238Y-75644819D02*
X131414524Y-75644819D01*
X131414524Y-75644819D02*
X131319286Y-75597200D01*
X131319286Y-75597200D02*
X131271667Y-75549580D01*
X133480595Y-71007319D02*
X133480595Y-71816842D01*
X133480595Y-71816842D02*
X133528214Y-71912080D01*
X133528214Y-71912080D02*
X133575833Y-71959700D01*
X133575833Y-71959700D02*
X133671071Y-72007319D01*
X133671071Y-72007319D02*
X133861547Y-72007319D01*
X133861547Y-72007319D02*
X133956785Y-71959700D01*
X133956785Y-71959700D02*
X134004404Y-71912080D01*
X134004404Y-71912080D02*
X134052023Y-71816842D01*
X134052023Y-71816842D02*
X134052023Y-71007319D01*
X135052023Y-72007319D02*
X134480595Y-72007319D01*
X134766309Y-72007319D02*
X134766309Y-71007319D01*
X134766309Y-71007319D02*
X134671071Y-71150176D01*
X134671071Y-71150176D02*
X134575833Y-71245414D01*
X134575833Y-71245414D02*
X134480595Y-71293033D01*
X132763333Y-65244819D02*
X132430000Y-64768628D01*
X132191905Y-65244819D02*
X132191905Y-64244819D01*
X132191905Y-64244819D02*
X132572857Y-64244819D01*
X132572857Y-64244819D02*
X132668095Y-64292438D01*
X132668095Y-64292438D02*
X132715714Y-64340057D01*
X132715714Y-64340057D02*
X132763333Y-64435295D01*
X132763333Y-64435295D02*
X132763333Y-64578152D01*
X132763333Y-64578152D02*
X132715714Y-64673390D01*
X132715714Y-64673390D02*
X132668095Y-64721009D01*
X132668095Y-64721009D02*
X132572857Y-64768628D01*
X132572857Y-64768628D02*
X132191905Y-64768628D01*
X133144286Y-64340057D02*
X133191905Y-64292438D01*
X133191905Y-64292438D02*
X133287143Y-64244819D01*
X133287143Y-64244819D02*
X133525238Y-64244819D01*
X133525238Y-64244819D02*
X133620476Y-64292438D01*
X133620476Y-64292438D02*
X133668095Y-64340057D01*
X133668095Y-64340057D02*
X133715714Y-64435295D01*
X133715714Y-64435295D02*
X133715714Y-64530533D01*
X133715714Y-64530533D02*
X133668095Y-64673390D01*
X133668095Y-64673390D02*
X133096667Y-65244819D01*
X133096667Y-65244819D02*
X133715714Y-65244819D01*
X132718333Y-73964819D02*
X132385000Y-73488628D01*
X132146905Y-73964819D02*
X132146905Y-72964819D01*
X132146905Y-72964819D02*
X132527857Y-72964819D01*
X132527857Y-72964819D02*
X132623095Y-73012438D01*
X132623095Y-73012438D02*
X132670714Y-73060057D01*
X132670714Y-73060057D02*
X132718333Y-73155295D01*
X132718333Y-73155295D02*
X132718333Y-73298152D01*
X132718333Y-73298152D02*
X132670714Y-73393390D01*
X132670714Y-73393390D02*
X132623095Y-73441009D01*
X132623095Y-73441009D02*
X132527857Y-73488628D01*
X132527857Y-73488628D02*
X132146905Y-73488628D01*
X133670714Y-73964819D02*
X133099286Y-73964819D01*
X133385000Y-73964819D02*
X133385000Y-72964819D01*
X133385000Y-72964819D02*
X133289762Y-73107676D01*
X133289762Y-73107676D02*
X133194524Y-73202914D01*
X133194524Y-73202914D02*
X133099286Y-73250533D01*
X129544819Y-73736666D02*
X129544819Y-74212856D01*
X129544819Y-74212856D02*
X128544819Y-74212856D01*
X128878152Y-72974761D02*
X129544819Y-72974761D01*
X128497200Y-73212856D02*
X129211485Y-73450951D01*
X129211485Y-73450951D02*
X129211485Y-72831904D01*
X129668333Y-71174819D02*
X129192143Y-71174819D01*
X129192143Y-71174819D02*
X129192143Y-70174819D01*
X129906429Y-70174819D02*
X130525476Y-70174819D01*
X130525476Y-70174819D02*
X130192143Y-70555771D01*
X130192143Y-70555771D02*
X130335000Y-70555771D01*
X130335000Y-70555771D02*
X130430238Y-70603390D01*
X130430238Y-70603390D02*
X130477857Y-70651009D01*
X130477857Y-70651009D02*
X130525476Y-70746247D01*
X130525476Y-70746247D02*
X130525476Y-70984342D01*
X130525476Y-70984342D02*
X130477857Y-71079580D01*
X130477857Y-71079580D02*
X130430238Y-71127200D01*
X130430238Y-71127200D02*
X130335000Y-71174819D01*
X130335000Y-71174819D02*
X130049286Y-71174819D01*
X130049286Y-71174819D02*
X129954048Y-71127200D01*
X129954048Y-71127200D02*
X129906429Y-71079580D01*
X128613333Y-72044819D02*
X128137143Y-72044819D01*
X128137143Y-72044819D02*
X128137143Y-71044819D01*
X128899048Y-71140057D02*
X128946667Y-71092438D01*
X128946667Y-71092438D02*
X129041905Y-71044819D01*
X129041905Y-71044819D02*
X129280000Y-71044819D01*
X129280000Y-71044819D02*
X129375238Y-71092438D01*
X129375238Y-71092438D02*
X129422857Y-71140057D01*
X129422857Y-71140057D02*
X129470476Y-71235295D01*
X129470476Y-71235295D02*
X129470476Y-71330533D01*
X129470476Y-71330533D02*
X129422857Y-71473390D01*
X129422857Y-71473390D02*
X128851429Y-72044819D01*
X128851429Y-72044819D02*
X129470476Y-72044819D01*
X131784819Y-71001666D02*
X131784819Y-71477856D01*
X131784819Y-71477856D02*
X130784819Y-71477856D01*
X131784819Y-70144523D02*
X131784819Y-70715951D01*
X131784819Y-70430237D02*
X130784819Y-70430237D01*
X130784819Y-70430237D02*
X130927676Y-70525475D01*
X130927676Y-70525475D02*
X131022914Y-70620713D01*
X131022914Y-70620713D02*
X131070533Y-70715951D01*
X142344819Y-74073333D02*
X143059104Y-74073333D01*
X143059104Y-74073333D02*
X143201961Y-74120952D01*
X143201961Y-74120952D02*
X143297200Y-74216190D01*
X143297200Y-74216190D02*
X143344819Y-74359047D01*
X143344819Y-74359047D02*
X143344819Y-74454285D01*
X143344819Y-73073333D02*
X143344819Y-73644761D01*
X143344819Y-73359047D02*
X142344819Y-73359047D01*
X142344819Y-73359047D02*
X142487676Y-73454285D01*
X142487676Y-73454285D02*
X142582914Y-73549523D01*
X142582914Y-73549523D02*
X142630533Y-73644761D01*
X129087142Y-72929580D02*
X129039523Y-72977200D01*
X129039523Y-72977200D02*
X128896666Y-73024819D01*
X128896666Y-73024819D02*
X128801428Y-73024819D01*
X128801428Y-73024819D02*
X128658571Y-72977200D01*
X128658571Y-72977200D02*
X128563333Y-72881961D01*
X128563333Y-72881961D02*
X128515714Y-72786723D01*
X128515714Y-72786723D02*
X128468095Y-72596247D01*
X128468095Y-72596247D02*
X128468095Y-72453390D01*
X128468095Y-72453390D02*
X128515714Y-72262914D01*
X128515714Y-72262914D02*
X128563333Y-72167676D01*
X128563333Y-72167676D02*
X128658571Y-72072438D01*
X128658571Y-72072438D02*
X128801428Y-72024819D01*
X128801428Y-72024819D02*
X128896666Y-72024819D01*
X128896666Y-72024819D02*
X129039523Y-72072438D01*
X129039523Y-72072438D02*
X129087142Y-72120057D01*
X130039523Y-73024819D02*
X129468095Y-73024819D01*
X129753809Y-73024819D02*
X129753809Y-72024819D01*
X129753809Y-72024819D02*
X129658571Y-72167676D01*
X129658571Y-72167676D02*
X129563333Y-72262914D01*
X129563333Y-72262914D02*
X129468095Y-72310533D01*
X130991904Y-73024819D02*
X130420476Y-73024819D01*
X130706190Y-73024819D02*
X130706190Y-72024819D01*
X130706190Y-72024819D02*
X130610952Y-72167676D01*
X130610952Y-72167676D02*
X130515714Y-72262914D01*
X130515714Y-72262914D02*
X130420476Y-72310533D01*
X129082142Y-72049580D02*
X129034523Y-72097200D01*
X129034523Y-72097200D02*
X128891666Y-72144819D01*
X128891666Y-72144819D02*
X128796428Y-72144819D01*
X128796428Y-72144819D02*
X128653571Y-72097200D01*
X128653571Y-72097200D02*
X128558333Y-72001961D01*
X128558333Y-72001961D02*
X128510714Y-71906723D01*
X128510714Y-71906723D02*
X128463095Y-71716247D01*
X128463095Y-71716247D02*
X128463095Y-71573390D01*
X128463095Y-71573390D02*
X128510714Y-71382914D01*
X128510714Y-71382914D02*
X128558333Y-71287676D01*
X128558333Y-71287676D02*
X128653571Y-71192438D01*
X128653571Y-71192438D02*
X128796428Y-71144819D01*
X128796428Y-71144819D02*
X128891666Y-71144819D01*
X128891666Y-71144819D02*
X129034523Y-71192438D01*
X129034523Y-71192438D02*
X129082142Y-71240057D01*
X130034523Y-72144819D02*
X129463095Y-72144819D01*
X129748809Y-72144819D02*
X129748809Y-71144819D01*
X129748809Y-71144819D02*
X129653571Y-71287676D01*
X129653571Y-71287676D02*
X129558333Y-71382914D01*
X129558333Y-71382914D02*
X129463095Y-71430533D01*
X130653571Y-71144819D02*
X130748809Y-71144819D01*
X130748809Y-71144819D02*
X130844047Y-71192438D01*
X130844047Y-71192438D02*
X130891666Y-71240057D01*
X130891666Y-71240057D02*
X130939285Y-71335295D01*
X130939285Y-71335295D02*
X130986904Y-71525771D01*
X130986904Y-71525771D02*
X130986904Y-71763866D01*
X130986904Y-71763866D02*
X130939285Y-71954342D01*
X130939285Y-71954342D02*
X130891666Y-72049580D01*
X130891666Y-72049580D02*
X130844047Y-72097200D01*
X130844047Y-72097200D02*
X130748809Y-72144819D01*
X130748809Y-72144819D02*
X130653571Y-72144819D01*
X130653571Y-72144819D02*
X130558333Y-72097200D01*
X130558333Y-72097200D02*
X130510714Y-72049580D01*
X130510714Y-72049580D02*
X130463095Y-71954342D01*
X130463095Y-71954342D02*
X130415476Y-71763866D01*
X130415476Y-71763866D02*
X130415476Y-71525771D01*
X130415476Y-71525771D02*
X130463095Y-71335295D01*
X130463095Y-71335295D02*
X130510714Y-71240057D01*
X130510714Y-71240057D02*
X130558333Y-71192438D01*
X130558333Y-71192438D02*
X130653571Y-71144819D01*
X129563333Y-71309580D02*
X129515714Y-71357200D01*
X129515714Y-71357200D02*
X129372857Y-71404819D01*
X129372857Y-71404819D02*
X129277619Y-71404819D01*
X129277619Y-71404819D02*
X129134762Y-71357200D01*
X129134762Y-71357200D02*
X129039524Y-71261961D01*
X129039524Y-71261961D02*
X128991905Y-71166723D01*
X128991905Y-71166723D02*
X128944286Y-70976247D01*
X128944286Y-70976247D02*
X128944286Y-70833390D01*
X128944286Y-70833390D02*
X128991905Y-70642914D01*
X128991905Y-70642914D02*
X129039524Y-70547676D01*
X129039524Y-70547676D02*
X129134762Y-70452438D01*
X129134762Y-70452438D02*
X129277619Y-70404819D01*
X129277619Y-70404819D02*
X129372857Y-70404819D01*
X129372857Y-70404819D02*
X129515714Y-70452438D01*
X129515714Y-70452438D02*
X129563333Y-70500057D01*
X130039524Y-71404819D02*
X130230000Y-71404819D01*
X130230000Y-71404819D02*
X130325238Y-71357200D01*
X130325238Y-71357200D02*
X130372857Y-71309580D01*
X130372857Y-71309580D02*
X130468095Y-71166723D01*
X130468095Y-71166723D02*
X130515714Y-70976247D01*
X130515714Y-70976247D02*
X130515714Y-70595295D01*
X130515714Y-70595295D02*
X130468095Y-70500057D01*
X130468095Y-70500057D02*
X130420476Y-70452438D01*
X130420476Y-70452438D02*
X130325238Y-70404819D01*
X130325238Y-70404819D02*
X130134762Y-70404819D01*
X130134762Y-70404819D02*
X130039524Y-70452438D01*
X130039524Y-70452438D02*
X129991905Y-70500057D01*
X129991905Y-70500057D02*
X129944286Y-70595295D01*
X129944286Y-70595295D02*
X129944286Y-70833390D01*
X129944286Y-70833390D02*
X129991905Y-70928628D01*
X129991905Y-70928628D02*
X130039524Y-70976247D01*
X130039524Y-70976247D02*
X130134762Y-71023866D01*
X130134762Y-71023866D02*
X130325238Y-71023866D01*
X130325238Y-71023866D02*
X130420476Y-70976247D01*
X130420476Y-70976247D02*
X130468095Y-70928628D01*
X130468095Y-70928628D02*
X130515714Y-70833390D01*
X129693333Y-69579580D02*
X129645714Y-69627200D01*
X129645714Y-69627200D02*
X129502857Y-69674819D01*
X129502857Y-69674819D02*
X129407619Y-69674819D01*
X129407619Y-69674819D02*
X129264762Y-69627200D01*
X129264762Y-69627200D02*
X129169524Y-69531961D01*
X129169524Y-69531961D02*
X129121905Y-69436723D01*
X129121905Y-69436723D02*
X129074286Y-69246247D01*
X129074286Y-69246247D02*
X129074286Y-69103390D01*
X129074286Y-69103390D02*
X129121905Y-68912914D01*
X129121905Y-68912914D02*
X129169524Y-68817676D01*
X129169524Y-68817676D02*
X129264762Y-68722438D01*
X129264762Y-68722438D02*
X129407619Y-68674819D01*
X129407619Y-68674819D02*
X129502857Y-68674819D01*
X129502857Y-68674819D02*
X129645714Y-68722438D01*
X129645714Y-68722438D02*
X129693333Y-68770057D01*
X130264762Y-69103390D02*
X130169524Y-69055771D01*
X130169524Y-69055771D02*
X130121905Y-69008152D01*
X130121905Y-69008152D02*
X130074286Y-68912914D01*
X130074286Y-68912914D02*
X130074286Y-68865295D01*
X130074286Y-68865295D02*
X130121905Y-68770057D01*
X130121905Y-68770057D02*
X130169524Y-68722438D01*
X130169524Y-68722438D02*
X130264762Y-68674819D01*
X130264762Y-68674819D02*
X130455238Y-68674819D01*
X130455238Y-68674819D02*
X130550476Y-68722438D01*
X130550476Y-68722438D02*
X130598095Y-68770057D01*
X130598095Y-68770057D02*
X130645714Y-68865295D01*
X130645714Y-68865295D02*
X130645714Y-68912914D01*
X130645714Y-68912914D02*
X130598095Y-69008152D01*
X130598095Y-69008152D02*
X130550476Y-69055771D01*
X130550476Y-69055771D02*
X130455238Y-69103390D01*
X130455238Y-69103390D02*
X130264762Y-69103390D01*
X130264762Y-69103390D02*
X130169524Y-69151009D01*
X130169524Y-69151009D02*
X130121905Y-69198628D01*
X130121905Y-69198628D02*
X130074286Y-69293866D01*
X130074286Y-69293866D02*
X130074286Y-69484342D01*
X130074286Y-69484342D02*
X130121905Y-69579580D01*
X130121905Y-69579580D02*
X130169524Y-69627200D01*
X130169524Y-69627200D02*
X130264762Y-69674819D01*
X130264762Y-69674819D02*
X130455238Y-69674819D01*
X130455238Y-69674819D02*
X130550476Y-69627200D01*
X130550476Y-69627200D02*
X130598095Y-69579580D01*
X130598095Y-69579580D02*
X130645714Y-69484342D01*
X130645714Y-69484342D02*
X130645714Y-69293866D01*
X130645714Y-69293866D02*
X130598095Y-69198628D01*
X130598095Y-69198628D02*
X130550476Y-69151009D01*
X130550476Y-69151009D02*
X130455238Y-69103390D01*
X129849580Y-71811666D02*
X129897200Y-71859285D01*
X129897200Y-71859285D02*
X129944819Y-72002142D01*
X129944819Y-72002142D02*
X129944819Y-72097380D01*
X129944819Y-72097380D02*
X129897200Y-72240237D01*
X129897200Y-72240237D02*
X129801961Y-72335475D01*
X129801961Y-72335475D02*
X129706723Y-72383094D01*
X129706723Y-72383094D02*
X129516247Y-72430713D01*
X129516247Y-72430713D02*
X129373390Y-72430713D01*
X129373390Y-72430713D02*
X129182914Y-72383094D01*
X129182914Y-72383094D02*
X129087676Y-72335475D01*
X129087676Y-72335475D02*
X128992438Y-72240237D01*
X128992438Y-72240237D02*
X128944819Y-72097380D01*
X128944819Y-72097380D02*
X128944819Y-72002142D01*
X128944819Y-72002142D02*
X128992438Y-71859285D01*
X128992438Y-71859285D02*
X129040057Y-71811666D01*
X128944819Y-71478332D02*
X128944819Y-70811666D01*
X128944819Y-70811666D02*
X129944819Y-71240237D01*
X127859580Y-68686666D02*
X127907200Y-68734285D01*
X127907200Y-68734285D02*
X127954819Y-68877142D01*
X127954819Y-68877142D02*
X127954819Y-68972380D01*
X127954819Y-68972380D02*
X127907200Y-69115237D01*
X127907200Y-69115237D02*
X127811961Y-69210475D01*
X127811961Y-69210475D02*
X127716723Y-69258094D01*
X127716723Y-69258094D02*
X127526247Y-69305713D01*
X127526247Y-69305713D02*
X127383390Y-69305713D01*
X127383390Y-69305713D02*
X127192914Y-69258094D01*
X127192914Y-69258094D02*
X127097676Y-69210475D01*
X127097676Y-69210475D02*
X127002438Y-69115237D01*
X127002438Y-69115237D02*
X126954819Y-68972380D01*
X126954819Y-68972380D02*
X126954819Y-68877142D01*
X126954819Y-68877142D02*
X127002438Y-68734285D01*
X127002438Y-68734285D02*
X127050057Y-68686666D01*
X126954819Y-67829523D02*
X126954819Y-68019999D01*
X126954819Y-68019999D02*
X127002438Y-68115237D01*
X127002438Y-68115237D02*
X127050057Y-68162856D01*
X127050057Y-68162856D02*
X127192914Y-68258094D01*
X127192914Y-68258094D02*
X127383390Y-68305713D01*
X127383390Y-68305713D02*
X127764342Y-68305713D01*
X127764342Y-68305713D02*
X127859580Y-68258094D01*
X127859580Y-68258094D02*
X127907200Y-68210475D01*
X127907200Y-68210475D02*
X127954819Y-68115237D01*
X127954819Y-68115237D02*
X127954819Y-67924761D01*
X127954819Y-67924761D02*
X127907200Y-67829523D01*
X127907200Y-67829523D02*
X127859580Y-67781904D01*
X127859580Y-67781904D02*
X127764342Y-67734285D01*
X127764342Y-67734285D02*
X127526247Y-67734285D01*
X127526247Y-67734285D02*
X127431009Y-67781904D01*
X127431009Y-67781904D02*
X127383390Y-67829523D01*
X127383390Y-67829523D02*
X127335771Y-67924761D01*
X127335771Y-67924761D02*
X127335771Y-68115237D01*
X127335771Y-68115237D02*
X127383390Y-68210475D01*
X127383390Y-68210475D02*
X127431009Y-68258094D01*
X127431009Y-68258094D02*
X127526247Y-68305713D01*
X131879580Y-62861666D02*
X131927200Y-62909285D01*
X131927200Y-62909285D02*
X131974819Y-63052142D01*
X131974819Y-63052142D02*
X131974819Y-63147380D01*
X131974819Y-63147380D02*
X131927200Y-63290237D01*
X131927200Y-63290237D02*
X131831961Y-63385475D01*
X131831961Y-63385475D02*
X131736723Y-63433094D01*
X131736723Y-63433094D02*
X131546247Y-63480713D01*
X131546247Y-63480713D02*
X131403390Y-63480713D01*
X131403390Y-63480713D02*
X131212914Y-63433094D01*
X131212914Y-63433094D02*
X131117676Y-63385475D01*
X131117676Y-63385475D02*
X131022438Y-63290237D01*
X131022438Y-63290237D02*
X130974819Y-63147380D01*
X130974819Y-63147380D02*
X130974819Y-63052142D01*
X130974819Y-63052142D02*
X131022438Y-62909285D01*
X131022438Y-62909285D02*
X131070057Y-62861666D01*
X130974819Y-61956904D02*
X130974819Y-62433094D01*
X130974819Y-62433094D02*
X131451009Y-62480713D01*
X131451009Y-62480713D02*
X131403390Y-62433094D01*
X131403390Y-62433094D02*
X131355771Y-62337856D01*
X131355771Y-62337856D02*
X131355771Y-62099761D01*
X131355771Y-62099761D02*
X131403390Y-62004523D01*
X131403390Y-62004523D02*
X131451009Y-61956904D01*
X131451009Y-61956904D02*
X131546247Y-61909285D01*
X131546247Y-61909285D02*
X131784342Y-61909285D01*
X131784342Y-61909285D02*
X131879580Y-61956904D01*
X131879580Y-61956904D02*
X131927200Y-62004523D01*
X131927200Y-62004523D02*
X131974819Y-62099761D01*
X131974819Y-62099761D02*
X131974819Y-62337856D01*
X131974819Y-62337856D02*
X131927200Y-62433094D01*
X131927200Y-62433094D02*
X131879580Y-62480713D01*
X135409580Y-74496666D02*
X135457200Y-74544285D01*
X135457200Y-74544285D02*
X135504819Y-74687142D01*
X135504819Y-74687142D02*
X135504819Y-74782380D01*
X135504819Y-74782380D02*
X135457200Y-74925237D01*
X135457200Y-74925237D02*
X135361961Y-75020475D01*
X135361961Y-75020475D02*
X135266723Y-75068094D01*
X135266723Y-75068094D02*
X135076247Y-75115713D01*
X135076247Y-75115713D02*
X134933390Y-75115713D01*
X134933390Y-75115713D02*
X134742914Y-75068094D01*
X134742914Y-75068094D02*
X134647676Y-75020475D01*
X134647676Y-75020475D02*
X134552438Y-74925237D01*
X134552438Y-74925237D02*
X134504819Y-74782380D01*
X134504819Y-74782380D02*
X134504819Y-74687142D01*
X134504819Y-74687142D02*
X134552438Y-74544285D01*
X134552438Y-74544285D02*
X134600057Y-74496666D01*
X134600057Y-74115713D02*
X134552438Y-74068094D01*
X134552438Y-74068094D02*
X134504819Y-73972856D01*
X134504819Y-73972856D02*
X134504819Y-73734761D01*
X134504819Y-73734761D02*
X134552438Y-73639523D01*
X134552438Y-73639523D02*
X134600057Y-73591904D01*
X134600057Y-73591904D02*
X134695295Y-73544285D01*
X134695295Y-73544285D02*
X134790533Y-73544285D01*
X134790533Y-73544285D02*
X134933390Y-73591904D01*
X134933390Y-73591904D02*
X135504819Y-74163332D01*
X135504819Y-74163332D02*
X135504819Y-73544285D01*
X130938333Y-76369580D02*
X130890714Y-76417200D01*
X130890714Y-76417200D02*
X130747857Y-76464819D01*
X130747857Y-76464819D02*
X130652619Y-76464819D01*
X130652619Y-76464819D02*
X130509762Y-76417200D01*
X130509762Y-76417200D02*
X130414524Y-76321961D01*
X130414524Y-76321961D02*
X130366905Y-76226723D01*
X130366905Y-76226723D02*
X130319286Y-76036247D01*
X130319286Y-76036247D02*
X130319286Y-75893390D01*
X130319286Y-75893390D02*
X130366905Y-75702914D01*
X130366905Y-75702914D02*
X130414524Y-75607676D01*
X130414524Y-75607676D02*
X130509762Y-75512438D01*
X130509762Y-75512438D02*
X130652619Y-75464819D01*
X130652619Y-75464819D02*
X130747857Y-75464819D01*
X130747857Y-75464819D02*
X130890714Y-75512438D01*
X130890714Y-75512438D02*
X130938333Y-75560057D01*
X131890714Y-76464819D02*
X131319286Y-76464819D01*
X131605000Y-76464819D02*
X131605000Y-75464819D01*
X131605000Y-75464819D02*
X131509762Y-75607676D01*
X131509762Y-75607676D02*
X131414524Y-75702914D01*
X131414524Y-75702914D02*
X131319286Y-75750533D01*
X128623333Y-83734104D02*
X129099523Y-83734104D01*
X128528095Y-84019819D02*
X128861428Y-83019819D01*
X128861428Y-83019819D02*
X129194761Y-84019819D01*
X129528095Y-83496009D02*
X129861428Y-83496009D01*
X130004285Y-84019819D02*
X129528095Y-84019819D01*
X129528095Y-84019819D02*
X129528095Y-83019819D01*
X129528095Y-83019819D02*
X130004285Y-83019819D01*
X130956666Y-84019819D02*
X130385238Y-84019819D01*
X130670952Y-84019819D02*
X130670952Y-83019819D01*
X130670952Y-83019819D02*
X130575714Y-83162676D01*
X130575714Y-83162676D02*
X130480476Y-83257914D01*
X130480476Y-83257914D02*
X130385238Y-83305533D01*
D11*
%TO.C,Y1*%
X134209999Y-67440088D02*
G75*
G02*
X131669459Y-67439478I-1269999J1130088D01*
G01*
X131669459Y-65180522D02*
G75*
G02*
X134209999Y-65179912I1270541J-1129478D01*
G01*
%TO.C,U1*%
X135352500Y-72375000D02*
X135352500Y-72860000D01*
X135352500Y-68880000D02*
X135352500Y-69605000D01*
X134627500Y-73100000D02*
X135052500Y-73100000D01*
X134627500Y-68880000D02*
X135352500Y-68880000D01*
X131857500Y-73100000D02*
X131132500Y-73100000D01*
X131857500Y-68880000D02*
X131132500Y-68880000D01*
X131132500Y-73100000D02*
X131132500Y-72375000D01*
X131132500Y-68880000D02*
X131132500Y-69605000D01*
X135592500Y-73430000D02*
X135112500Y-73430000D01*
X135352500Y-73100000D01*
X135592500Y-73430000D01*
G36*
X135592500Y-73430000D02*
G01*
X135112500Y-73430000D01*
X135352500Y-73100000D01*
X135592500Y-73430000D01*
G37*
%TO.C,J1*%
X139790000Y-67500000D02*
X137880000Y-67500000D01*
X137880000Y-67500000D02*
X137880000Y-69410000D01*
X141790000Y-67810000D02*
X138190000Y-67810000D01*
X140240000Y-67810000D02*
X140240000Y-68110000D01*
X139490000Y-67810000D02*
X139490000Y-68110000D01*
X138190000Y-67810000D02*
X138190000Y-79660000D01*
X141340000Y-68110000D02*
X141340000Y-68410000D01*
X140240000Y-68110000D02*
X141340000Y-68110000D01*
X139490000Y-68110000D02*
X138490000Y-68110000D01*
X138490000Y-68110000D02*
X138490000Y-79360000D01*
X141340000Y-68410000D02*
X141790000Y-68410000D01*
X141340000Y-68410000D02*
X141340000Y-69610000D01*
X141640000Y-69610000D02*
X141640000Y-70360000D01*
X141340000Y-69610000D02*
X141640000Y-69610000D01*
X141640000Y-70360000D02*
X141340000Y-70360000D01*
X141340000Y-70360000D02*
X141340000Y-77110000D01*
X141640000Y-77110000D02*
X141640000Y-77860000D01*
X141340000Y-77110000D02*
X141640000Y-77110000D01*
X141640000Y-77860000D02*
X141340000Y-77860000D01*
X141340000Y-77860000D02*
X141340000Y-79060000D01*
X141340000Y-79060000D02*
X141790000Y-79060000D01*
X141340000Y-79360000D02*
X141340000Y-79060000D01*
X140240000Y-79360000D02*
X141340000Y-79360000D01*
X139490000Y-79360000D02*
X139490000Y-79660000D01*
X138490000Y-79360000D02*
X139490000Y-79360000D01*
X141790000Y-79660000D02*
X141790000Y-67810000D01*
X140240000Y-79660000D02*
X140240000Y-79360000D01*
X138190000Y-79660000D02*
X141790000Y-79660000D01*
%TD*%
M02*
